<?xml version="1.0" encoding="UTF-8"?>
<svg width="54px" height="39px" viewBox="0 0 54 39" version="1.1" xmlns="http://www.w3.org/2000/svg" xmlns:xlink="http://www.w3.org/1999/xlink">
    <!-- Generator: Sketch 3.8.1 (29687) - http://www.bohemiancoding.com/sketch -->
    <title>Group</title>
    <desc>Created with Sketch.</desc>
    <defs></defs>
    <g id="Page-1" stroke="none" stroke-width="1" fill="none" fill-rule="evenodd">
        <g id="Group" fill="#657786">
            <path d="M16.993,13.202 C17.471,13.202 17.951,13.03 18.338,12.684 C19.17,11.934 19.244,10.641 18.503,9.797 L11.015,1.269 C10.94,1.204 10.912,1.175 10.881,1.147 C10.773,1.034 10.683,1.01 10.605,0.956 C10.512,0.894 10.428,0.814 10.33,0.769 C10.11,0.687 9.999,0.676 9.887,0.654 C9.779,0.633 9.676,0.597 9.564,0.594 C9.336,0.597 9.231,0.632 9.121,0.654 C9.009,0.676 8.9,0.687 8.794,0.728 C8.583,0.814 8.5,0.893 8.406,0.956 C8.326,1.01 8.235,1.034 8.162,1.1 C8.097,1.176 8.069,1.205 8.042,1.235 C8.028,1.249 0.51,9.797 0.51,9.797 C-0.231,10.641 -0.156,11.934 0.678,12.684 C1.063,13.03 1.541,13.202 2.018,13.202 C2.575,13.202 3.128,12.97 3.527,12.515 L7.487,8.004 L7.487,32.449 C7.487,35.832 10.204,38.583 13.545,38.583 L29.685,38.583 C30.8,38.583 31.704,37.668 31.704,36.539 C31.704,35.409 30.801,34.494 29.685,34.494 L13.545,34.494 C12.43,34.494 11.525,33.576 11.525,32.449 L11.525,8.004 L15.486,12.515 C15.884,12.969 16.438,13.202 16.993,13.202 Z" id="Shape"></path>
            <path d="M38.9931366,13.608 C39.4711366,13.608 39.9511366,13.436 40.3381366,13.09 C41.1701366,12.34 41.2441366,11.047 40.5031366,10.203 L33.0151366,1.675 C32.9401366,1.61 32.9121366,1.581 32.8811366,1.553 C32.7731366,1.44 32.6831366,1.416 32.6051366,1.362 C32.5121366,1.3 32.4281366,1.22 32.3301366,1.175 C32.1101366,1.093 31.9991366,1.082 31.8871366,1.06 C31.7791366,1.039 31.6761366,1.003 31.5641366,1 C31.3361366,1.003 31.2311366,1.038 31.1211366,1.06 C31.0091366,1.082 30.9001366,1.093 30.7941366,1.134 C30.5831366,1.22 30.5001366,1.299 30.4061366,1.362 C30.3261366,1.416 30.2351366,1.44 30.1621366,1.506 C30.0971366,1.582 30.0691366,1.611 30.0421366,1.641 C30.0281366,1.655 22.5101366,10.203 22.5101366,10.203 C21.7691366,11.047 21.8441366,12.34 22.6781366,13.09 C23.0631366,13.436 23.5411366,13.608 24.0181366,13.608 C24.5751366,13.608 25.1281366,13.376 25.5271366,12.921 L29.4871366,8.41 L29.4871366,32.855 C29.4871366,36.238 32.2041366,38.989 35.5451366,38.989 L51.6851366,38.989 C52.8001366,38.989 53.7041366,38.074 53.7041366,36.945 C53.7041366,35.815 52.8011366,34.9 51.6851366,34.9 L35.5451366,34.9 C34.4301366,34.9 33.5251366,33.982 33.5251366,32.855 L33.5251366,8.41 L37.4861366,12.921 C37.8841366,13.375 38.4381366,13.608 38.9931366,13.608 Z" id="Shape-Copy" transform="translate(37.852068, 19.994500) rotate(-180.000000) translate(-37.852068, -19.994500) "></path>
        </g>
    </g>
</svg>